<svg width="40" height="40" viewBox="0 0 40 40" fill="none" xmlns="http://www.w3.org/2000/svg">
<path d="M0.5 6C0.5 2.96243 2.96243 0.5 6 0.5H39.5V39.5H6C2.96243 39.5 0.5 37.0376 0.5 34V6Z" fill="white" stroke="#647A8C"/>
<path d="M14 17.1429H12.2857C12.2083 17.1429 12.1414 17.171 12.0848 17.2276C12.0282 17.2842 12 17.3512 12 17.4286V19.1429C12 19.2202 12.0282 19.2873 12.0848 19.3438C12.1414 19.4002 12.2083 19.4286 12.2857 19.4286H14C14.0774 19.4286 14.1443 19.4003 14.2009 19.3438C14.2574 19.2872 14.2857 19.2202 14.2857 19.1429V17.4286C14.2857 17.3512 14.2574 17.2842 14.2009 17.2276C14.1443 17.1711 14.0774 17.1429 14 17.1429Z" fill="#045DA7"/>
<path d="M14 24.0001H12.2857C12.2083 24.0001 12.1414 24.0281 12.0848 24.0847C12.0282 24.1413 12 24.2082 12 24.2856V26C12 26.0773 12.0282 26.1442 12.0848 26.2008C12.1414 26.2575 12.2083 26.2857 12.2857 26.2857H14C14.0774 26.2857 14.1443 26.2574 14.2009 26.2008C14.2574 26.1443 14.2857 26.0773 14.2857 26V24.2856C14.2857 24.2082 14.2574 24.1413 14.2009 24.0847C14.1443 24.0283 14.0774 24.0001 14 24.0001Z" fill="#045DA7"/>
<path d="M14 20.5713H12.2857C12.2083 20.5713 12.1414 20.5997 12.0848 20.6562C12.0283 20.7126 12 20.7798 12 20.8571V22.5713C12 22.6488 12.0282 22.7158 12.0848 22.7723C12.1414 22.8288 12.2083 22.857 12.2857 22.857H14C14.0774 22.857 14.1443 22.8289 14.2009 22.7723C14.2574 22.7158 14.2857 22.6488 14.2857 22.5713V20.8571C14.2857 20.7798 14.2574 20.7128 14.2009 20.6562C14.1443 20.5997 14.0774 20.5713 14 20.5713Z" fill="#045DA7"/>
<path d="M14 13.7143H12.2857C12.2083 13.7143 12.1414 13.7425 12.0848 13.7991C12.0283 13.8556 12 13.9226 12 14V15.7143C12 15.7917 12.0282 15.8586 12.0848 15.9152C12.1414 15.9717 12.2083 16 12.2857 16H14C14.0774 16 14.1443 15.9718 14.2009 15.9152C14.2574 15.8586 14.2857 15.7917 14.2857 15.7143V14C14.2857 13.9226 14.2574 13.8556 14.2009 13.7991C14.1443 13.7427 14.0774 13.7143 14 13.7143Z" fill="#045DA7"/>
<path d="M27.7142 24.0001H15.7143C15.6369 24.0001 15.5699 24.0281 15.5134 24.0847C15.4568 24.1413 15.4286 24.2082 15.4286 24.2857V26.0001C15.4286 26.0773 15.4568 26.1442 15.5134 26.2008C15.57 26.2575 15.6368 26.2857 15.7143 26.2857H27.7142C27.7917 26.2857 27.8586 26.2575 27.9152 26.2008C27.9718 26.1442 28 26.0773 28 26.0001V24.2857C28 24.2082 27.9717 24.1413 27.9152 24.0847C27.8586 24.0283 27.7917 24.0001 27.7142 24.0001Z" fill="#045DA7"/>
<path d="M27.7142 20.5713H15.7143C15.6369 20.5713 15.5699 20.5997 15.5134 20.6562C15.4569 20.7126 15.4286 20.7798 15.4286 20.8571V22.5713C15.4286 22.6488 15.4568 22.7158 15.5134 22.7723C15.57 22.8288 15.6368 22.857 15.7143 22.857H27.7142C27.7917 22.857 27.8586 22.8289 27.9152 22.7723C27.9718 22.7158 28 22.6488 28 22.5713V20.8571C28 20.7798 27.9717 20.7128 27.9152 20.6562C27.8586 20.5997 27.7917 20.5713 27.7142 20.5713Z" fill="#045DA7"/>
<path d="M27.9152 13.7991C27.8586 13.7426 27.7917 13.7143 27.7142 13.7143H15.7143C15.6369 13.7143 15.5699 13.7425 15.5134 13.7991C15.4569 13.8556 15.4286 13.9226 15.4286 14V15.7143C15.4286 15.7917 15.4568 15.8586 15.5134 15.9152C15.57 15.9717 15.6368 16 15.7143 16H27.7142C27.7917 16 27.8586 15.9718 27.9152 15.9152C27.9718 15.8586 28 15.7917 28 15.7143V14C27.9999 13.9226 27.9717 13.8556 27.9152 13.7991Z" fill="#045DA7"/>
<path d="M27.7142 17.1429H15.7143C15.6369 17.1429 15.5699 17.171 15.5134 17.2276C15.4568 17.2842 15.4286 17.3512 15.4286 17.4286V19.1429C15.4286 19.2202 15.4568 19.2872 15.5134 19.3438C15.57 19.4002 15.6368 19.4286 15.7143 19.4286H27.7142C27.7917 19.4286 27.8586 19.4003 27.9152 19.3438C27.9718 19.2872 28 19.2202 28 19.1429V17.4286C28 17.3512 27.9717 17.2842 27.9152 17.2276C27.8586 17.1711 27.7917 17.1429 27.7142 17.1429Z" fill="#045DA7"/>
</svg>
